<mxfile host="app.diagrams.net" agent="Mozilla/5.0 (Windows NT 10.0; Win64; x64) AppleWebKit/537.36 (KHTML, like Gecko) Chrome/140.0.0.0 Safari/537.36" version="28.2.3">
  <diagram name="Page-1" id="AEShR5NHr7ZjB_rvM2G-">
    <mxGraphModel dx="1572" dy="834" grid="1" gridSize="10" guides="1" tooltips="1" connect="1" arrows="1" fold="1" page="1" pageScale="1" pageWidth="850" pageHeight="1100" math="0" shadow="0">
      <root>
        <mxCell id="0" />
        <mxCell id="1" parent="0" />
        <mxCell id="fF0kM8yenosX__ws76Ik-3" value="" style="whiteSpace=wrap;html=1;aspect=fixed;" parent="1" vertex="1">
          <mxGeometry x="273" y="270" width="740" height="740" as="geometry" />
        </mxCell>
        <mxCell id="fF0kM8yenosX__ws76Ik-27" style="rounded=0;orthogonalLoop=1;jettySize=auto;html=1;endArrow=none;endFill=0;" parent="1" source="fF0kM8yenosX__ws76Ik-5" target="fF0kM8yenosX__ws76Ik-26" edge="1">
          <mxGeometry relative="1" as="geometry" />
        </mxCell>
        <mxCell id="fF0kM8yenosX__ws76Ik-43" style="edgeStyle=orthogonalEdgeStyle;rounded=0;orthogonalLoop=1;jettySize=auto;html=1;entryX=0;entryY=0.3333333333333333;entryDx=0;entryDy=0;entryPerimeter=0;endArrow=none;endFill=0;startArrow=classic;startFill=1;" parent="1" source="fF0kM8yenosX__ws76Ik-5" target="fF0kM8yenosX__ws76Ik-20" edge="1">
          <mxGeometry relative="1" as="geometry">
            <mxPoint x="150" y="952.806974712171" as="targetPoint" />
            <Array as="points">
              <mxPoint x="140" y="597" />
              <mxPoint x="140" y="907" />
            </Array>
          </mxGeometry>
        </mxCell>
        <mxCell id="fF0kM8yenosX__ws76Ik-5" value="&lt;span style=&quot;color: rgba(0, 0, 0, 0.88); font-family: &amp;quot;Nunito Sans&amp;quot;, &amp;quot;sans-serif&amp;quot;; font-size: 14px; text-align: start; text-wrap-mode: wrap; background-color: rgb(255, 255, 255);&quot;&gt;MANAGER&lt;/span&gt;" style="shape=umlActor;verticalLabelPosition=bottom;verticalAlign=top;html=1;outlineConnect=0;" parent="1" vertex="1">
          <mxGeometry x="190" y="567" width="30" height="60" as="geometry" />
        </mxCell>
        <mxCell id="fF0kM8yenosX__ws76Ik-10" style="rounded=0;orthogonalLoop=1;jettySize=auto;html=1;entryX=0;entryY=0.5;entryDx=0;entryDy=0;endArrow=none;endFill=0;" parent="1" target="fF0kM8yenosX__ws76Ik-11" edge="1">
          <mxGeometry relative="1" as="geometry">
            <mxPoint x="220" y="344.28115015974447" as="sourcePoint" />
          </mxGeometry>
        </mxCell>
        <mxCell id="fF0kM8yenosX__ws76Ik-24" style="rounded=0;orthogonalLoop=1;jettySize=auto;html=1;entryX=0.5;entryY=0;entryDx=0;entryDy=0;endArrow=classic;endFill=1;startArrow=none;startFill=0;dashed=1;dashPattern=8 8;" parent="1" source="fF0kM8yenosX__ws76Ik-11" target="fF0kM8yenosX__ws76Ik-16" edge="1">
          <mxGeometry relative="1" as="geometry" />
        </mxCell>
        <mxCell id="fF0kM8yenosX__ws76Ik-52" value="&lt;strong data-end=&quot;316&quot; data-start=&quot;305&quot;&gt;Include&lt;/strong&gt;" style="edgeLabel;html=1;align=center;verticalAlign=middle;resizable=0;points=[];" parent="fF0kM8yenosX__ws76Ik-24" vertex="1" connectable="0">
          <mxGeometry x="0.0028" y="-1" relative="1" as="geometry">
            <mxPoint as="offset" />
          </mxGeometry>
        </mxCell>
        <mxCell id="fF0kM8yenosX__ws76Ik-28" style="rounded=0;orthogonalLoop=1;jettySize=auto;html=1;dashed=1;dashPattern=8 8;" parent="1" source="fF0kM8yenosX__ws76Ik-11" target="fF0kM8yenosX__ws76Ik-26" edge="1">
          <mxGeometry relative="1" as="geometry" />
        </mxCell>
        <mxCell id="fF0kM8yenosX__ws76Ik-53" value="&lt;strong data-end=&quot;316&quot; data-start=&quot;305&quot;&gt;Include&lt;/strong&gt;" style="edgeLabel;html=1;align=center;verticalAlign=middle;resizable=0;points=[];" parent="fF0kM8yenosX__ws76Ik-28" vertex="1" connectable="0">
          <mxGeometry x="-0.0091" y="-3" relative="1" as="geometry">
            <mxPoint as="offset" />
          </mxGeometry>
        </mxCell>
        <mxCell id="fF0kM8yenosX__ws76Ik-37" style="rounded=0;orthogonalLoop=1;jettySize=auto;html=1;entryX=0.5;entryY=0;entryDx=0;entryDy=0;dashed=1;dashPattern=8 8;" parent="1" source="fF0kM8yenosX__ws76Ik-11" target="fF0kM8yenosX__ws76Ik-32" edge="1">
          <mxGeometry relative="1" as="geometry" />
        </mxCell>
        <mxCell id="fF0kM8yenosX__ws76Ik-54" value="&lt;strong data-end=&quot;316&quot; data-start=&quot;305&quot;&gt;Include&lt;/strong&gt;" style="edgeLabel;html=1;align=center;verticalAlign=middle;resizable=0;points=[];" parent="fF0kM8yenosX__ws76Ik-37" vertex="1" connectable="0">
          <mxGeometry x="-0.2483" y="-1" relative="1" as="geometry">
            <mxPoint y="-1" as="offset" />
          </mxGeometry>
        </mxCell>
        <mxCell id="fF0kM8yenosX__ws76Ik-38" style="rounded=0;orthogonalLoop=1;jettySize=auto;html=1;dashed=1;dashPattern=8 8;" parent="1" source="fF0kM8yenosX__ws76Ik-11" target="fF0kM8yenosX__ws76Ik-33" edge="1">
          <mxGeometry relative="1" as="geometry" />
        </mxCell>
        <mxCell id="fF0kM8yenosX__ws76Ik-55" value="&lt;strong data-end=&quot;316&quot; data-start=&quot;305&quot;&gt;Include&lt;/strong&gt;" style="edgeLabel;html=1;align=center;verticalAlign=middle;resizable=0;points=[];" parent="fF0kM8yenosX__ws76Ik-38" vertex="1" connectable="0">
          <mxGeometry x="-0.3337" y="1" relative="1" as="geometry">
            <mxPoint as="offset" />
          </mxGeometry>
        </mxCell>
        <mxCell id="fF0kM8yenosX__ws76Ik-11" value="" style="ellipse;whiteSpace=wrap;html=1;" parent="1" vertex="1">
          <mxGeometry x="470" y="315" width="110" height="60" as="geometry" />
        </mxCell>
        <mxCell id="fF0kM8yenosX__ws76Ik-12" value="Login" style="text;html=1;align=center;verticalAlign=middle;whiteSpace=wrap;rounded=0;" parent="1" vertex="1">
          <mxGeometry x="495" y="330" width="60" height="30" as="geometry" />
        </mxCell>
        <mxCell id="fF0kM8yenosX__ws76Ik-16" value="&lt;b&gt;lecture seule pour audit et reporting.&lt;/b&gt;" style="ellipse;whiteSpace=wrap;html=1;" parent="1" vertex="1">
          <mxGeometry x="770" y="360" width="120" height="80" as="geometry" />
        </mxCell>
        <mxCell id="fF0kM8yenosX__ws76Ik-41" style="edgeStyle=orthogonalEdgeStyle;rounded=0;orthogonalLoop=1;jettySize=auto;html=1;entryX=0;entryY=0.3333333333333333;entryDx=0;entryDy=0;entryPerimeter=0;endArrow=none;endFill=0;startArrow=classic;startFill=1;" parent="1" target="fF0kM8yenosX__ws76Ik-20" edge="1">
          <mxGeometry relative="1" as="geometry">
            <mxPoint x="171" y="600" as="targetPoint" />
            <mxPoint x="200" y="344.9999999999999" as="sourcePoint" />
            <Array as="points">
              <mxPoint x="180" y="345" />
              <mxPoint x="180" y="907" />
              <mxPoint x="190" y="907" />
            </Array>
          </mxGeometry>
        </mxCell>
        <mxCell id="fF0kM8yenosX__ws76Ik-56" value="Text" style="edgeLabel;html=1;align=center;verticalAlign=middle;resizable=0;points=[];" parent="fF0kM8yenosX__ws76Ik-41" vertex="1" connectable="0">
          <mxGeometry x="-0.278" y="-1" relative="1" as="geometry">
            <mxPoint as="offset" />
          </mxGeometry>
        </mxCell>
        <mxCell id="fF0kM8yenosX__ws76Ik-19" value="&lt;span style=&quot;color: rgba(0, 0, 0, 0.88); font-family: &amp;quot;Nunito Sans&amp;quot;, &amp;quot;sans-serif&amp;quot;; font-size: 14px; text-align: start; text-wrap-mode: wrap; background-color: rgb(255, 255, 255);&quot;&gt;AUDITOR&lt;/span&gt;" style="shape=umlActor;verticalLabelPosition=bottom;verticalAlign=top;html=1;outlineConnect=0;" parent="1" vertex="1">
          <mxGeometry x="189" y="315" width="30" height="60" as="geometry" />
        </mxCell>
        <mxCell id="fF0kM8yenosX__ws76Ik-35" style="edgeStyle=orthogonalEdgeStyle;rounded=0;orthogonalLoop=1;jettySize=auto;html=1;entryX=0;entryY=0.5;entryDx=0;entryDy=0;endArrow=none;endFill=0;" parent="1" source="fF0kM8yenosX__ws76Ik-20" target="fF0kM8yenosX__ws76Ik-33" edge="1">
          <mxGeometry relative="1" as="geometry" />
        </mxCell>
        <mxCell id="fF0kM8yenosX__ws76Ik-20" value="&lt;span style=&quot;color: rgba(0, 0, 0, 0.88); font-family: &amp;quot;Nunito Sans&amp;quot;, &amp;quot;sans-serif&amp;quot;; font-size: 14px; text-align: start; text-wrap-mode: wrap; background-color: rgb(255, 255, 255);&quot;&gt;ADMIN&lt;/span&gt;" style="shape=umlActor;verticalLabelPosition=bottom;verticalAlign=top;html=1;outlineConnect=0;" parent="1" vertex="1">
          <mxGeometry x="200" y="890.5" width="30" height="50" as="geometry" />
        </mxCell>
        <mxCell id="fF0kM8yenosX__ws76Ik-26" value="&lt;b&gt;&amp;nbsp;validation des opérations sensibles (clôture, crédits, virements externes).&lt;/b&gt;" style="ellipse;whiteSpace=wrap;html=1;" parent="1" vertex="1">
          <mxGeometry x="320" y="550" width="250" height="93" as="geometry" />
        </mxCell>
        <mxCell id="fF0kM8yenosX__ws76Ik-34" style="edgeStyle=orthogonalEdgeStyle;rounded=0;orthogonalLoop=1;jettySize=auto;html=1;endArrow=none;endFill=0;" parent="1" source="fF0kM8yenosX__ws76Ik-30" target="fF0kM8yenosX__ws76Ik-32" edge="1">
          <mxGeometry relative="1" as="geometry" />
        </mxCell>
        <mxCell id="fF0kM8yenosX__ws76Ik-30" value="&lt;span style=&quot;color: rgba(0, 0, 0, 0.88); font-family: &amp;quot;Nunito Sans&amp;quot;, &amp;quot;sans-serif&amp;quot;; font-size: 14px; text-align: start; text-wrap-mode: wrap; background-color: rgb(255, 255, 255);&quot;&gt;TELLER&amp;nbsp;&lt;/span&gt;" style="shape=umlActor;verticalLabelPosition=bottom;verticalAlign=top;html=1;outlineConnect=0;" parent="1" vertex="1">
          <mxGeometry x="200" y="750" width="30" height="50" as="geometry" />
        </mxCell>
        <mxCell id="fF0kM8yenosX__ws76Ik-32" value="&lt;span style=&quot;color: rgba(0, 0, 0, 0.88); font-family: &amp;quot;Nunito Sans&amp;quot;, &amp;quot;sans-serif&amp;quot;; font-size: 14px; text-align: start; background-color: rgb(255, 255, 255);&quot;&gt;&amp;nbsp;opérations courantes (dépôts, retraits, virements internes, demandes de crédits).&lt;/span&gt;" style="ellipse;whiteSpace=wrap;html=1;" parent="1" vertex="1">
          <mxGeometry x="496" y="728.5" width="250" height="93" as="geometry" />
        </mxCell>
        <mxCell id="fF0kM8yenosX__ws76Ik-33" value="&lt;p style=&quot;box-sizing: border-box; border: 0px solid; --tw-border-spacing-x: 0; --tw-border-spacing-y: 0; --tw-translate-x: 0; --tw-translate-y: 0; --tw-rotate: 0; --tw-skew-x: 0; --tw-skew-y: 0; --tw-scale-x: 1; --tw-scale-y: 1; --tw-pan-x: ; --tw-pan-y: ; --tw-pinch-zoom: ; --tw-scroll-snap-strictness: proximity; --tw-gradient-from-position: ; --tw-gradient-via-position: ; --tw-gradient-to-position: ; --tw-ordinal: ; --tw-slashed-zero: ; --tw-numeric-figure: ; --tw-numeric-spacing: ; --tw-numeric-fraction: ; --tw-ring-inset: ; --tw-ring-offset-width: 0px; --tw-ring-offset-color: light-dark(#fff, #000000); --tw-ring-color: light-dark(rgba(59,130,246,.5), #4c89ec); --tw-ring-offset-shadow: 0 0 #0000; --tw-ring-shadow: 0 0 #0000; --tw-shadow: 0 0 #0000; --tw-shadow-colored: 0 0 #0000; --tw-blur: ; --tw-brightness: ; --tw-contrast: ; --tw-grayscale: ; --tw-hue-rotate: ; --tw-invert: ; --tw-saturate: ; --tw-sepia: ; --tw-drop-shadow: ; --tw-backdrop-blur: ; --tw-backdrop-brightness: ; --tw-backdrop-contrast: ; --tw-backdrop-grayscale: ; --tw-backdrop-hue-rotate: ; --tw-backdrop-invert: ; --tw-backdrop-opacity: ; --tw-backdrop-saturate: ; --tw-backdrop-sepia: ; --tw-contain-size: ; --tw-contain-layout: ; --tw-contain-paint: ; --tw-contain-style: ; margin: 1rem 0px 1em; color: rgba(0, 0, 0, 0.88); font-family: &amp;quot;Nunito Sans&amp;quot;, &amp;quot;sans-serif&amp;quot;; font-size: 14px; text-align: start; background-color: rgb(255, 255, 255);&quot; class=&quot;my-4&quot;&gt;tous les droits (super utilisateur).&lt;/p&gt;&lt;div&gt;gestion système&lt;/div&gt;" style="ellipse;whiteSpace=wrap;html=1;" parent="1" vertex="1">
          <mxGeometry x="744" y="869" width="250" height="93" as="geometry" />
        </mxCell>
        <mxCell id="fF0kM8yenosX__ws76Ik-46" value="&lt;h2&gt;gestion bancaire&lt;/h2&gt;" style="rounded=0;whiteSpace=wrap;html=1;" parent="1" vertex="1">
          <mxGeometry x="285" y="270" width="270" height="30" as="geometry" />
        </mxCell>
        <mxCell id="fF0kM8yenosX__ws76Ik-50" style="edgeStyle=orthogonalEdgeStyle;rounded=0;orthogonalLoop=1;jettySize=auto;html=1;entryX=0.5;entryY=0;entryDx=0;entryDy=0;entryPerimeter=0;endArrow=none;endFill=0;startArrow=classic;startFill=1;" parent="1" source="fF0kM8yenosX__ws76Ik-30" target="fF0kM8yenosX__ws76Ik-20" edge="1">
          <mxGeometry relative="1" as="geometry" />
        </mxCell>
      </root>
    </mxGraphModel>
  </diagram>
</mxfile>
